<svg xmlns="http://www.w3.org/2000/svg" width="256" height="256" viewBox="0 0 100 100"><path fill="#f50000" d="M13.34 42.65L10.32 42.02C10.24 42.67 10.13 43.25 9.86 44.22C9.31 46.20 7.68 51.41 6.58 54.22C6.40 54.22 6.21 54.24 6.06 54.24C5.44 54.26 4.62 54.26 3.97 54.26L4.41 57.03C5.02 56.95 5.72 56.86 6.20 56.80C8.59 56.55 14.35 55.95 17.42 55.59C17.79 56.40 18.09 57.18 18.34 57.83L20.90 56.69C20.03 54.56 18.09 50.84 16.74 48.78L14.37 49.75C14.99 50.59 15.70 51.86 16.36 53.23C14.44 53.46 11.74 53.76 9.43 53.99C10.38 51.44 11.91 46.62 12.52 44.76C12.81 43.92 13.09 43.22 13.34 42.65ZM25.69 50.70C25.04 52.38 23.92 54.43 22.74 55.98L25.40 57.11C26.39 55.68 27.51 53.52 28.20 51.67C28.86 49.91 29.55 47.30 29.81 45.95C29.89 45.53 30.12 44.60 30.27 44.05L27.49 43.48C27.27 45.90 26.54 48.59 25.69 50.70ZM35.08 50.30C35.84 52.36 36.52 54.77 37.05 57.01L39.86 56.10C39.33 54.22 38.32 51.20 37.66 49.47C36.94 47.64 35.63 44.72 34.85 43.24L32.32 44.05C33.12 45.52 34.35 48.31 35.08 50.30ZM45.37 42.53L43.59 44.43C44.97 45.40 47.35 47.47 48.34 48.54L50.28 46.56C49.17 45.40 46.70 43.43 45.37 42.53ZM43.00 55.19L44.59 57.70C47.27 57.24 49.72 56.17 51.64 55.02C54.70 53.17 57.23 50.55 58.67 47.99L57.19 45.31C55.99 47.87 53.52 50.78 50.28 52.70C48.43 53.80 45.96 54.77 43.00 55.19ZM77.90 45.00L76.00 43.45C75.60 43.58 74.96 43.65 74.23 43.65L63.69 43.65C63.04 43.65 62.00 43.56 61.50 43.48L61.50 46.14C61.90 46.10 62.93 46.01 63.69 46.01L73.74 46.01C72.85 47.57 71.06 49.77 68.91 51.48C67.72 50.44 66.46 49.41 65.70 48.84L63.69 50.46C64.83 51.27 66.77 52.98 67.87 54.10C69.10 55.36 70.70 57.14 71.50 58.21L73.72 56.44C72.98 55.55 71.86 54.31 70.78 53.23C73.46 51.06 75.89 48.02 77.26 45.80C77.41 45.55 77.64 45.31 77.90 45.00ZM91.75 42.84L90.16 43.50C90.86 44.49 91.28 45.25 91.83 46.45L93.48 45.71C93.04 44.85 92.28 43.63 91.75 42.84ZM94.24 41.79L92.66 42.53C93.37 43.48 93.82 44.19 94.43 45.38L96.03 44.60C95.59 43.75 94.79 42.55 94.24 41.79ZM84.17 55.43C84.17 56.17 84.10 57.33 83.98 58.07L86.96 58.07C86.87 57.30 86.77 55.97 86.77 55.43L86.77 50.06C88.83 50.74 91.68 51.84 93.65 52.89L94.72 50.25C92.97 49.39 89.30 48.04 86.77 47.28L86.77 44.51C86.77 43.71 86.87 42.88 86.95 42.21L83.98 42.21C84.11 42.89 84.17 43.83 84.17 44.51Z"></path></svg>